<svg width="16" height="16" xmlns="http://www.w3.org/2000/svg" xmlns:xlink="http://www.w3.org/1999/xlink" overflow="hidden"><defs><clipPath id="clip0"><rect x="259" y="492" width="16" height="16"/></clipPath></defs><g clip-path="url(#clip0)" transform="translate(-259 -492)"><path d="M262.612 507.443C262.226 507.641 261.788 507.294 261.866 506.851L262.696 502.121 259.173 498.765C258.844 498.451 259.015 497.877 259.456 497.815L264.354 497.119 266.538 492.792C266.735 492.402 267.268 492.402 267.465 492.792L269.649 497.119 274.547 497.815C274.988 497.877 275.159 498.451 274.829 498.765L271.307 502.121 272.137 506.851C272.215 507.294 271.777 507.641 271.391 507.443L267 505.187 262.611 507.443Z" fill="#FFC000"/></g></svg>