<svg width="92" height="92" xmlns="http://www.w3.org/2000/svg" xmlns:xlink="http://www.w3.org/1999/xlink" overflow="hidden"><defs><clipPath id="clip0"><rect x="813" y="115" width="92" height="92"/></clipPath></defs><g clip-path="url(#clip0)" transform="translate(-813 -115)"><path d="M832.205 132.215C833.786 130.272 836.115 129.375 838.38 129.375L879.62 129.375C881.879 129.375 884.208 130.272 885.795 132.215 889.119 136.286 896.375 146.786 896.375 161 896.375 175.214 889.119 185.708 885.795 189.785 884.208 191.728 881.885 192.625 879.62 192.625L838.38 192.625C836.115 192.625 833.786 191.728 832.205 189.785 828.881 185.708 821.625 175.214 821.625 161 821.625 146.786 828.881 136.292 832.205 132.215ZM838.38 135.125C837.727 135.094 837.095 135.36 836.661 135.85 833.694 139.489 827.375 148.712 827.375 161 827.375 173.288 833.694 182.505 836.661 186.15 837.006 186.57 837.599 186.875 838.386 186.875L879.614 186.875C880.401 186.875 880.994 186.57 881.339 186.15 884.306 182.511 890.625 173.288 890.625 161 890.625 148.712 884.306 139.495 881.339 135.85 880.904 135.359 880.269 135.092 879.614 135.125L838.386 135.125Z" fill="#B3E3ED"/><path d="M847.5 146.625C849.088 146.625 850.375 147.912 850.375 149.5L850.375 158.125C850.375 159.713 849.088 161 847.5 161 845.912 161 844.625 159.713 844.625 158.125L844.625 149.5C844.625 147.912 845.912 146.625 847.5 146.625ZM870.5 146.625C872.088 146.625 873.375 147.912 873.375 149.5L873.375 158.125C873.375 159.713 872.088 161 870.5 161 868.912 161 867.625 159.713 867.625 158.125L867.625 149.5C867.625 147.912 868.912 146.625 870.5 146.625ZM853.25 172.5 853.25 178.25 864.75 178.25 864.75 172.5C864.75 169.324 862.176 166.75 859 166.75 855.824 166.75 853.25 169.324 853.25 172.5Z" fill="#B3E3ED"/></g></svg>