<svg width="16" height="16" xmlns="http://www.w3.org/2000/svg" xmlns:xlink="http://www.w3.org/1999/xlink" overflow="hidden"><defs><clipPath id="clip0"><rect x="445" y="478" width="16" height="16"/></clipPath></defs><g clip-path="url(#clip0)" transform="translate(-445 -478)"><path d="M457 479C457.552 479 458 479.448 458 480L458 492C458 492.552 457.552 493 457 493L449 493C448.448 493 448 492.552 448 492L448 480C448 479.448 448.448 479 449 479L457 479ZM449 478C447.895 478 447 478.895 447 480L447 492C447 493.105 447.895 494 449 494L457 494C458.105 494 459 493.105 459 492L459 480C459 478.895 458.105 478 457 478L449 478Z" fill="#00B0F0"/><path d="M449 480.5C449 480.224 449.224 480 449.5 480L456.5 480C456.776 480 457 480.224 457 480.5L457 482.5C457 482.776 456.776 483 456.5 483L449.5 483C449.224 483 449 482.776 449 482.5L449 480.5ZM449 484.5C449 484.224 449.224 484 449.5 484L450.5 484C450.776 484 451 484.224 451 484.5L451 485.5C451 485.776 450.776 486 450.5 486L449.5 486C449.224 486 449 485.776 449 485.5L449 484.5ZM449 487.5C449 487.224 449.224 487 449.5 487L450.5 487C450.776 487 451 487.224 451 487.5L451 488.5C451 488.776 450.776 489 450.5 489L449.5 489C449.224 489 449 488.776 449 488.5L449 487.5ZM449 490.5C449 490.224 449.224 490 449.5 490L450.5 490C450.776 490 451 490.224 451 490.5L451 491.5C451 491.776 450.776 492 450.5 492L449.5 492C449.224 492 449 491.776 449 491.5L449 490.5ZM452 484.5C452 484.224 452.224 484 452.5 484L453.5 484C453.776 484 454 484.224 454 484.5L454 485.5C454 485.776 453.776 486 453.5 486L452.5 486C452.224 486 452 485.776 452 485.5L452 484.5ZM452 487.5C452 487.224 452.224 487 452.5 487L453.5 487C453.776 487 454 487.224 454 487.5L454 488.5C454 488.776 453.776 489 453.5 489L452.5 489C452.224 489 452 488.776 452 488.5L452 487.5ZM452 490.5C452 490.224 452.224 490 452.5 490L453.5 490C453.776 490 454 490.224 454 490.5L454 491.5C454 491.776 453.776 492 453.5 492L452.5 492C452.224 492 452 491.776 452 491.5L452 490.5ZM455 484.5C455 484.224 455.224 484 455.5 484L456.5 484C456.776 484 457 484.224 457 484.5L457 485.5C457 485.776 456.776 486 456.5 486L455.5 486C455.224 486 455 485.776 455 485.5L455 484.5ZM455 487.5C455 487.224 455.224 487 455.5 487L456.5 487C456.776 487 457 487.224 457 487.5L457 491.5C457 491.776 456.776 492 456.5 492L455.5 492C455.224 492 455 491.776 455 491.5L455 487.5Z" fill="#00B0F0"/></g></svg>