<svg width="258" height="218" xmlns="http://www.w3.org/2000/svg" xmlns:xlink="http://www.w3.org/1999/xlink" overflow="hidden"><defs><clipPath id="clip0"><rect x="2823" y="444" width="258" height="218"/></clipPath></defs><g clip-path="url(#clip0)" transform="translate(-2823 -444)"><path d="M2859.52 453.79C2864.97 447.092 2873.01 444 2880.83 444L3023.17 444C3030.97 444 3039.01 447.092 3044.48 453.79 3055.95 467.822 3081 504.01 3081 553 3081 601.991 3055.95 638.159 3044.48 652.21 3039.01 658.909 3030.99 662 3023.17 662L2880.83 662C2873.01 662 2864.97 658.909 2859.52 652.21 2848.05 638.159 2823 601.991 2823 553 2823 504.01 2848.05 467.841 2859.52 453.79ZM2880.83 463.818C2878.58 463.712 2876.4 464.63 2874.9 466.315 2864.66 478.86 2842.85 510.649 2842.85 553 2842.85 595.352 2864.66 627.12 2874.9 639.685 2876.09 641.132 2878.13 642.182 2880.85 642.182L3023.15 642.182C3025.87 642.182 3027.91 641.132 3029.1 639.685 3039.34 627.14 3061.15 595.352 3061.15 553 3061.15 510.649 3039.34 478.88 3029.1 466.315 3027.6 464.624 3025.41 463.706 3023.15 463.818L2880.85 463.818Z" fill="#40BAD2" fill-rule="evenodd"/><path d="M2911.9 504C2917.37 504 2921.8 508.437 2921.8 513.909L2921.8 543.636C2921.8 549.109 2917.37 553.545 2911.9 553.545 2906.43 553.545 2902 549.109 2902 543.636L2902 513.909C2902 508.437 2906.43 504 2911.9 504ZM2991.1 504C2996.57 504 3001 508.437 3001 513.909L3001 543.636C3001 549.109 2996.57 553.545 2991.1 553.545 2985.63 553.545 2981.2 549.109 2981.2 543.636L2981.2 513.909C2981.2 508.437 2985.63 504 2991.1 504ZM2931.7 593.182 2931.7 613 2971.3 613 2971.3 593.182C2971.3 582.237 2962.44 573.364 2951.5 573.364 2940.56 573.364 2931.7 582.237 2931.7 593.182Z" fill="#A6A6A6" fill-rule="evenodd"/></g></svg>