<svg width="16" height="16" xmlns="http://www.w3.org/2000/svg" xmlns:xlink="http://www.w3.org/1999/xlink" overflow="hidden"><defs><clipPath id="clip0"><rect x="587" y="418" width="16" height="16"/></clipPath></defs><g clip-path="url(#clip0)" transform="translate(-587 -418)"><path d="M597.854 425.146C598.049 425.341 598.05 425.658 597.855 425.853 597.855 425.853 597.854 425.854 597.854 425.854L594.854 428.854C594.659 429.049 594.342 429.05 594.147 428.855 594.147 428.855 594.146 428.854 594.146 428.854L592.646 427.354C592.451 427.158 592.451 426.842 592.646 426.646 592.841 426.451 593.159 426.451 593.354 426.646L594.5 427.793 597.146 425.146C597.341 424.951 597.658 424.95 597.853 425.145 597.853 425.145 597.854 425.146 597.854 425.146Z" fill="#C00000"/><path d="M590.5 418C590.776 418 591 418.224 591 418.5L591 419 599 419 599 418.5C599 418.224 599.224 418 599.5 418 599.776 418 600 418.224 600 418.5L600 419 601 419C602.105 419 603 419.895 603 421L603 432C603 433.105 602.105 434 601 434L589 434C587.895 434 587 433.105 587 432L587 421C587 419.895 587.895 419 589 419L590 419 590 418.5C590 418.224 590.224 418 590.5 418ZM588 422 588 432C588 432.552 588.448 433 589 433L601 433C601.552 433 602 432.552 602 432L602 422 588 422Z" fill="#C00000"/></g></svg>